<svg width="32" height="32" viewBox="0 0 32 32" fill="none" xmlns="http://www.w3.org/2000/svg">
<g clip-path="url(#clip0_1027_4128)">
<path d="M16 30.9333C14.0389 30.9333 12.097 30.5471 10.2852 29.7966C8.47345 29.0461 6.82721 27.9461 5.44052 26.5594C4.05383 25.1728 2.95385 23.5265 2.20338 21.7147C1.45291 19.9029 1.06665 17.9611 1.06665 16C1.06665 14.0389 1.45291 12.097 2.20338 10.2852C2.95385 8.47345 4.05383 6.82721 5.44052 5.44052C6.82721 4.05383 8.47345 2.95385 10.2852 2.20338C12.097 1.45291 14.0389 1.06665 16 1.06665C19.9606 1.06665 23.7589 2.63998 26.5594 5.44052C29.36 8.24107 30.9333 12.0394 30.9333 16C30.9333 19.9606 29.36 23.7589 26.5594 26.5594C23.7589 29.36 19.9606 30.9333 16 30.9333ZM16 30.9333V13.8667C16 12.7351 16.4495 11.6498 17.2497 10.8497C18.0498 10.0495 19.1351 9.59998 20.2667 9.59998H21.3333M10.6667 18.1333H21.3333" stroke="white"/>
</g>
<defs>
<clipPath id="clip0_1027_4128">
<rect width="32" height="32" fill="white"/>
</clipPath>
</defs>
</svg>
