<svg width="34" height="27" viewBox="0 0 34 27" fill="none" xmlns="http://www.w3.org/2000/svg">
<path d="M16.5492 6.85909L5.66711 15.8218V25.4951C5.66711 25.7456 5.76661 25.9858 5.94371 26.1629C6.12082 26.34 6.36102 26.4395 6.61149 26.4395L13.2256 26.4223C13.4753 26.4211 13.7143 26.321 13.8903 26.1441C14.0664 25.9671 14.1653 25.7276 14.1653 25.478V19.8289C14.1653 19.5784 14.2648 19.3382 14.4419 19.1611C14.619 18.984 14.8592 18.8845 15.1097 18.8845H18.8871C19.1376 18.8845 19.3778 18.984 19.5549 19.1611C19.732 19.3382 19.8315 19.5784 19.8315 19.8289V25.4738C19.8311 25.5981 19.8553 25.7212 19.9025 25.8361C19.9498 25.9511 20.0193 26.0555 20.1071 26.1435C20.1948 26.2315 20.299 26.3014 20.4138 26.349C20.5286 26.3966 20.6516 26.4212 20.7759 26.4212L27.3877 26.4395C27.6381 26.4395 27.8783 26.34 28.0554 26.1629C28.2325 25.9858 28.332 25.7456 28.332 25.4951V15.8153L17.4523 6.85909C17.3244 6.75599 17.165 6.69977 17.0008 6.69977C16.8365 6.69977 16.6771 6.75599 16.5492 6.85909ZM33.7386 12.9509L28.8042 8.88359V0.708279C28.8042 0.520432 28.7296 0.340278 28.5968 0.20745C28.4639 0.0746221 28.2838 0 28.0959 0H24.7906C24.6028 0 24.4226 0.0746221 24.2898 0.20745C24.157 0.340278 24.0824 0.520432 24.0824 0.708279V4.99396L18.798 0.646304C18.2909 0.228998 17.6545 0.000834202 16.9978 0.000834202C16.3411 0.000834202 15.7047 0.228998 15.1976 0.646304L0.257045 12.9509C0.185325 13.0102 0.125987 13.083 0.0824235 13.1652C0.0388596 13.2474 0.0119231 13.3374 0.00315311 13.4301C-0.00561692 13.5227 0.0039514 13.6161 0.0313114 13.7051C0.0586713 13.794 0.103287 13.8767 0.162608 13.9484L1.6677 15.7781C1.72686 15.85 1.79963 15.9096 1.88184 15.9534C1.96404 15.9971 2.05408 16.0243 2.14679 16.0332C2.2395 16.0421 2.33306 16.0327 2.42211 16.0054C2.51117 15.9782 2.59397 15.9336 2.66578 15.8743L16.5492 4.43914C16.6771 4.33604 16.8365 4.27982 17.0008 4.27982C17.165 4.27982 17.3244 4.33604 17.4523 4.43914L31.3363 15.8743C31.408 15.9336 31.4907 15.9782 31.5796 16.0056C31.6685 16.033 31.762 16.0425 31.8546 16.0338C31.9473 16.025 32.0373 15.998 32.1195 15.9545C32.2017 15.9109 32.2745 15.8516 32.3338 15.7799L33.8389 13.9501C33.8982 13.878 33.9426 13.7949 33.9696 13.7056C33.9967 13.6163 34.0058 13.5225 33.9965 13.4297C33.9871 13.3368 33.9595 13.2467 33.9153 13.1645C33.871 13.0824 33.811 13.0098 33.7386 12.9509Z" fill="#0FA958"/>
</svg>
