<svg width="32" height="32" viewBox="0 0 32 32" fill="none" xmlns="http://www.w3.org/2000/svg">
<g clip-path="url(#clip0_1027_4130)">
<path d="M19.515 11.9521C18.837 11.9521 18.335 12.1231 17.942 12.3391C17.879 12.1151 17.672 11.9511 17.428 12.0001H14.444C14.149 11.9511 13.91 12.1901 14.001 12.5001V23.5001C13.91 23.7801 14.149 24.0201 14.444 24.0001H17.428C17.723 24.0201 17.962 23.7801 17.962 23.4851L17.961 16.8371C17.96 16.8341 17.949 16.5161 18.15 16.2971C18.311 16.1231 18.588 16.0341 18.971 16.0341C19.609 16.0341 19.893 16.2951 19.999 16.8791V23.4851C19.894 23.7801 20.133 24.0201 20.428 24.0001H23.573C23.868 24.0201 24.107 23.7801 24.001 23.4851V16.6571C24.106 13.1851 21.633 11.9521 19.515 11.9521ZM23.038 23.0001H20.962V16.8791C20.962 15.6981 20.199 14.9661 18.972 14.9661C18.278 14.9661 17.738 15.1701 17.366 15.5721C16.849 16.1321 16.889 16.8421 17 17.0001V23.0001H14.978V13.0201H16.894V13.3561C16.8932 13.4562 16.9207 13.5544 16.9733 13.6396C17.0258 13.7248 17.1014 13.7934 17.1912 13.8376C17.281 13.8818 17.3815 13.8997 17.481 13.8894C17.5806 13.879 17.6752 13.8408 17.754 13.7791L17.894 13.6711C18.299 13.3521 18.718 13.0211 19.516 13.0211C20.342 13.0211 23.039 13.2841 23.039 16.6581L23.038 23.0001ZM11 6.96606C9.878 6.96606 8.966 7.87806 8.966 9.00006C8.966 10.1221 9.878 11.0341 11 11.0341C12.122 11.0341 13.034 10.1221 13.034 9.00006C13.034 7.87806 12.122 6.96606 11 6.96606ZM11 9.96606C10.468 9.96606 10.034 9.53206 10.034 9.00006C10.034 8.46806 10.468 8.03406 11 8.03406C11.532 8.03406 11.966 8.46806 11.966 9.00006C11.966 9.53206 11.532 9.96606 11 9.96606ZM12.428 11.9511H9.46C9.165 11.9511 8.926 12.1901 9 12.5001V23.5001C8.926 23.7801 9.165 24.0201 9.46 24.0001H12.428C12.723 24.0201 12.962 23.7801 12.962 23.4851V12.4851C12.962 12.3434 12.9057 12.2076 12.8056 12.1075C12.7055 12.0073 12.5696 11.9511 12.428 11.9511ZM12 23.0001H9.994V13.0201H12V23.0001Z" fill="white"/>
<path d="M16 -0.0339355C7.158 -0.0339355 -0.0339966 7.15806 -0.0339966 16.0001C-0.0339966 24.8421 7.158 32.0341 16 32.0341C24.842 32.0341 32.034 24.8421 32.034 16.0001C32.034 7.15806 24.842 -0.0339355 16 -0.0339355ZM16 30.9661C7.748 30.9661 1.034 24.2521 1.034 16.0001C1.034 7.74806 7.748 1.03406 16 1.03406C24.252 1.03406 30.966 7.74806 30.966 16.0001C30.966 24.2521 24.252 30.9661 16 30.9661Z" fill="white"/>
</g>
<defs>
<clipPath id="clip0_1027_4130">
<rect width="32" height="32" fill="white"/>
</clipPath>
</defs>
</svg>
