<svg width="142" height="21" viewBox="0 0 142 21" fill="none" xmlns="http://www.w3.org/2000/svg">
<path d="M46.408 16.584L46.664 16.224C47.0533 16.448 47.4667 16.56 47.904 16.56C48.24 16.56 48.504 16.4827 48.696 16.328C48.888 16.168 48.984 15.944 48.984 15.656C48.984 15.1653 48.6613 14.808 48.016 14.584C47.4667 14.3973 47.0693 14.1893 46.824 13.96C46.5787 13.7307 46.456 13.4507 46.456 13.12C46.456 12.7253 46.6107 12.408 46.92 12.168C47.2027 11.9493 47.5733 11.84 48.032 11.84C48.5333 11.84 48.9893 11.9787 49.4 12.256L49.136 12.616C48.8053 12.44 48.4507 12.352 48.072 12.352C47.7627 12.352 47.5173 12.4187 47.336 12.552C47.1547 12.6853 47.064 12.8667 47.064 13.096C47.064 13.4533 47.3413 13.736 47.896 13.944C48.5253 14.184 48.9653 14.432 49.216 14.688C49.472 14.9387 49.6 15.2667 49.6 15.672C49.6 16.136 49.4213 16.5013 49.064 16.768C48.7707 16.9867 48.4133 17.096 47.992 17.096C47.464 17.096 46.936 16.9253 46.408 16.584ZM53.3349 17H52.9349L52.8549 16.608C52.5295 16.9333 52.1242 17.096 51.6389 17.096C51.2709 17.096 50.9775 16.9947 50.7589 16.792C50.5402 16.584 50.4309 16.3093 50.4309 15.968C50.4309 15.136 51.0389 14.72 52.2549 14.72H52.8069V14.672C52.8069 14.0373 52.4975 13.72 51.8789 13.72C51.5269 13.72 51.1882 13.8373 50.8629 14.072L50.6869 13.776C51.0549 13.44 51.5029 13.272 52.0309 13.272C52.4522 13.272 52.7749 13.4027 52.9989 13.664C53.2229 13.9253 53.3349 14.3013 53.3349 14.792V17ZM52.8069 15.112H52.3189C51.4442 15.112 51.0069 15.3813 51.0069 15.92C51.0069 16.1493 51.0735 16.3307 51.2069 16.464C51.3455 16.592 51.5375 16.656 51.7829 16.656C51.9962 16.656 52.2015 16.6027 52.3989 16.496C52.5962 16.3893 52.7322 16.256 52.8069 16.096V15.112ZM54.2813 13.368H54.8013V12.84C54.8013 12.5253 54.8786 12.28 55.0333 12.104C55.188 11.928 55.4066 11.84 55.6893 11.84C55.9773 11.84 56.252 11.9307 56.5133 12.112L56.3213 12.408C56.1453 12.3173 55.972 12.272 55.8013 12.272C55.4866 12.272 55.3293 12.4693 55.3293 12.864V13.368H56.2413V13.8H55.3293V17H54.8013V13.8H54.2813V13.368ZM60.0526 15.368H57.4606C57.4819 15.7573 57.6152 16.0693 57.8606 16.304C58.1112 16.5387 58.4339 16.656 58.8286 16.656C59.1592 16.656 59.4819 16.5573 59.7966 16.36L59.9806 16.68C59.6286 16.9573 59.2046 17.096 58.7086 17.096C58.1326 17.096 57.6739 16.9067 57.3326 16.528C57.0179 16.1867 56.8606 15.744 56.8606 15.2C56.8606 14.6347 57.0286 14.1627 57.3646 13.784C57.6686 13.4427 58.0446 13.272 58.4926 13.272C59.0312 13.272 59.4419 13.4907 59.7246 13.928C59.9432 14.2693 60.0526 14.6907 60.0526 15.192V15.368ZM57.4526 14.936H59.5006C59.4846 14.5467 59.3886 14.2427 59.2126 14.024C59.0419 13.8053 58.8046 13.696 58.5006 13.696C58.2126 13.696 57.9699 13.8107 57.7726 14.04C57.5806 14.2693 57.4739 14.568 57.4526 14.936ZM61.8615 13.808L61.8535 16.08C61.8535 16.4693 62.0108 16.664 62.3255 16.664C62.5015 16.664 62.6748 16.6187 62.8455 16.528L63.0375 16.824C62.7762 17.0053 62.5015 17.096 62.2135 17.096C61.9308 17.096 61.7122 17.008 61.5575 16.832C61.4028 16.656 61.3255 16.4107 61.3255 16.096V13.808H60.7735V13.368H61.3335V12.576L61.8615 12.304V13.368H62.9735V13.808H61.8615ZM66.911 13.368L65.327 17.552C65.087 18.2027 64.7563 18.528 64.335 18.528C64.0683 18.528 63.8017 18.432 63.535 18.24L63.711 17.952C63.8923 18.048 64.0523 18.096 64.191 18.096C64.4577 18.096 64.6897 17.848 64.887 17.352L65.031 17H64.895L63.495 13.368H64.063L65.215 16.448L66.335 13.368H66.911ZM70.1451 13.368V17H69.6171V13.368H70.1451ZM69.5371 12.184C69.5371 12.0933 69.5718 12.0133 69.6411 11.944C69.7105 11.8747 69.7931 11.84 69.8891 11.84C69.9851 11.84 70.0678 11.8747 70.1371 11.944C70.2065 12.0133 70.2411 12.0933 70.2411 12.184C70.2411 12.2853 70.2065 12.3707 70.1371 12.44C70.0678 12.504 69.9851 12.536 69.8891 12.536C69.7878 12.536 69.7025 12.504 69.6331 12.44C69.5691 12.3707 69.5371 12.2853 69.5371 12.184ZM73.3405 13.912C73.0738 13.7733 72.7832 13.704 72.4685 13.704C72.2552 13.704 72.0872 13.752 71.9645 13.848C71.8472 13.9387 71.7885 14.064 71.7885 14.224C71.7885 14.3947 71.8418 14.528 71.9485 14.624C72.0605 14.7147 72.2712 14.8053 72.5805 14.896C73.0178 15.0293 73.3218 15.1787 73.4925 15.344C73.6632 15.5093 73.7485 15.7413 73.7485 16.04C73.7485 16.3547 73.6285 16.6107 73.3885 16.808C73.1538 17 72.8498 17.096 72.4765 17.096C71.9858 17.096 71.5592 16.9627 71.1965 16.696C71.2125 16.6693 71.2392 16.624 71.2765 16.56C71.3138 16.4907 71.3458 16.4373 71.3725 16.4C71.6818 16.5707 72.0152 16.656 72.3725 16.656C72.9325 16.656 73.2125 16.4453 73.2125 16.024C73.2125 15.8533 73.1512 15.72 73.0285 15.624C72.9112 15.528 72.6898 15.4373 72.3645 15.352C71.6072 15.1387 71.2285 14.768 71.2285 14.24C71.2285 13.9573 71.3378 13.7253 71.5565 13.544C71.7805 13.3627 72.0658 13.272 72.4125 13.272C72.8232 13.272 73.1912 13.3867 73.5165 13.616L73.3405 13.912ZM78.6307 17.096C77.9 17.096 77.332 16.7947 76.9267 16.192C76.612 15.7227 76.4547 15.152 76.4547 14.48C76.4547 13.7013 76.6627 13.0613 77.0787 12.56C77.4734 12.08 77.9907 11.84 78.6307 11.84C79.3614 11.84 79.9294 12.144 80.3347 12.752C80.6494 13.232 80.8067 13.808 80.8067 14.48C80.8067 15.2587 80.5987 15.896 80.1827 16.392C79.788 16.8613 79.2707 17.096 78.6307 17.096ZM77.0867 14.48C77.0867 15.152 77.2334 15.6773 77.5267 16.056C77.7987 16.4027 78.1667 16.576 78.6307 16.576C79.164 16.576 79.5667 16.352 79.8387 15.904C80.0627 15.536 80.1747 15.0613 80.1747 14.48C80.1747 13.808 80.028 13.28 79.7347 12.896C79.4627 12.5333 79.0947 12.352 78.6307 12.352C78.1027 12.352 77.7 12.584 77.4227 13.048C77.1987 13.4213 77.0867 13.8987 77.0867 14.48ZM84.7551 13.368V17H84.3391L84.2911 16.584L84.2671 16.592C83.9418 16.928 83.5471 17.096 83.0831 17.096C82.6938 17.096 82.3871 16.96 82.1631 16.688C81.9391 16.4107 81.8271 16.0293 81.8271 15.544V13.368H82.3631V15.448C82.3631 16.232 82.6565 16.624 83.2431 16.624C83.4245 16.624 83.6058 16.5787 83.7871 16.488C83.9738 16.3973 84.1205 16.28 84.2271 16.136V13.368H84.7551ZM88.3748 13.68L87.9348 13.984C87.7535 13.824 87.5588 13.744 87.3508 13.744C87.0468 13.744 86.7775 13.9013 86.5428 14.216V17H86.0068V13.368H86.4628L86.5108 13.752H86.5268C86.8415 13.432 87.1641 13.272 87.4948 13.272C87.8841 13.272 88.1775 13.408 88.3748 13.68ZM91.1575 17V11.936C91.6322 11.872 92.0428 11.84 92.3895 11.84C93.5842 11.84 94.1815 12.352 94.1815 13.376C94.1815 13.8933 94.0135 14.2907 93.6775 14.568C93.3735 14.8133 92.9655 14.936 92.4535 14.936C92.2242 14.936 91.9895 14.92 91.7495 14.888V17H91.1575ZM91.7495 12.368V14.408C91.9415 14.44 92.1655 14.456 92.4215 14.456C93.1788 14.456 93.5575 14.096 93.5575 13.376C93.5575 12.6667 93.1682 12.312 92.3895 12.312C92.1442 12.312 91.9308 12.3307 91.7495 12.368ZM97.5701 13.68L97.1301 13.984C96.9488 13.824 96.7541 13.744 96.5461 13.744C96.2421 13.744 95.9728 13.9013 95.7381 14.216V17H95.2021V13.368H95.6581L95.7061 13.752H95.7221C96.0368 13.432 96.3595 13.272 96.6901 13.272C97.0795 13.272 97.3728 13.408 97.5701 13.68ZM98.8248 13.368V17H98.2968V13.368H98.8248ZM98.2168 12.184C98.2168 12.0933 98.2515 12.0133 98.3208 11.944C98.3901 11.8747 98.4728 11.84 98.5688 11.84C98.6648 11.84 98.7475 11.8747 98.8168 11.944C98.8861 12.0133 98.9208 12.0933 98.9208 12.184C98.9208 12.2853 98.8861 12.3707 98.8168 12.44C98.7475 12.504 98.6648 12.536 98.5688 12.536C98.4675 12.536 98.3821 12.504 98.3128 12.44C98.2488 12.3707 98.2168 12.2853 98.2168 12.184ZM103.372 15.192C103.372 15.768 103.191 16.24 102.828 16.608C102.503 16.9333 102.103 17.096 101.628 17.096C101.079 17.096 100.636 16.888 100.3 16.472C100.018 16.12 99.8762 15.6933 99.8762 15.192C99.8762 14.6053 100.052 14.1307 100.404 13.768C100.724 13.4373 101.132 13.272 101.628 13.272C102.188 13.272 102.634 13.4827 102.964 13.904C103.236 14.256 103.372 14.6853 103.372 15.192ZM100.452 15.192C100.452 15.656 100.572 16.024 100.812 16.296C101.026 16.536 101.295 16.656 101.62 16.656C101.972 16.656 102.255 16.5227 102.468 16.256C102.687 15.984 102.796 15.6293 102.796 15.192C102.796 14.7333 102.679 14.3653 102.444 14.088C102.231 13.832 101.959 13.704 101.628 13.704C101.276 13.704 100.991 13.8427 100.772 14.12C100.559 14.392 100.452 14.7493 100.452 15.192ZM106.75 13.68L106.31 13.984C106.128 13.824 105.934 13.744 105.726 13.744C105.422 13.744 105.152 13.9013 104.918 14.216V17H104.382V13.368H104.838L104.886 13.752H104.902C105.216 13.432 105.539 13.272 105.87 13.272C106.259 13.272 106.552 13.408 106.75 13.68ZM108.005 13.368V17H107.477V13.368H108.005ZM107.397 12.184C107.397 12.0933 107.431 12.0133 107.501 11.944C107.57 11.8747 107.653 11.84 107.749 11.84C107.845 11.84 107.927 11.8747 107.997 11.944C108.066 12.0133 108.101 12.0933 108.101 12.184C108.101 12.2853 108.066 12.3707 107.997 12.44C107.927 12.504 107.845 12.536 107.749 12.536C107.647 12.536 107.562 12.504 107.493 12.44C107.429 12.3707 107.397 12.2853 107.397 12.184ZM110.096 13.808L110.088 16.08C110.088 16.4693 110.245 16.664 110.56 16.664C110.736 16.664 110.909 16.6187 111.08 16.528L111.272 16.824C111.011 17.0053 110.736 17.096 110.448 17.096C110.165 17.096 109.947 17.008 109.792 16.832C109.637 16.656 109.56 16.4107 109.56 16.096V13.808H109.008V13.368H109.568V12.576L110.096 12.304V13.368H111.208V13.808H110.096ZM115.145 13.368L113.561 17.552C113.321 18.2027 112.991 18.528 112.569 18.528C112.303 18.528 112.036 18.432 111.769 18.24L111.945 17.952C112.127 18.048 112.287 18.096 112.425 18.096C112.692 18.096 112.924 17.848 113.121 17.352L113.265 17H113.129L111.729 13.368H112.297L113.449 16.448L114.569 13.368H115.145Z" fill="white"/>
<rect width="24" height="16" transform="translate(0 5)" fill="#007A37"/>
<path d="M7.9196 5.82056H18.0388L10.5991 15.2453H0.47998L7.9196 5.82056Z" fill="white"/>
<path d="M8.36274 16.1188L5.4812 19.7693H16.0804L23.52 10.3445H15.6971L11.1391 16.1188H8.36274Z" fill="#E41313"/>
<path d="M27.96 9V1.416C28.072 1.392 28.388 1.36 28.908 1.32C29.428 1.28 29.824 1.26 30.096 1.26C32.032 1.26 33 2.052 33 3.636C33 4.62 32.664 5.34 31.992 5.796C31.544 6.108 31.016 6.264 30.408 6.264C29.928 6.264 29.636 6.232 29.532 6.168V9H27.96ZM29.532 2.604V4.896C29.74 4.976 30 5.016 30.312 5.016C30.632 5.016 30.884 4.904 31.068 4.68C31.252 4.448 31.344 4.132 31.344 3.732C31.344 2.924 30.988 2.52 30.276 2.52C29.868 2.52 29.62 2.548 29.532 2.604ZM35.8085 1.26V9H34.2965V2.052L35.8085 1.26ZM39.7891 3.408C40.6851 3.408 41.3811 3.724 41.8771 4.356C42.2931 4.884 42.5011 5.528 42.5011 6.288C42.5011 7.176 42.1931 7.896 41.5771 8.448C41.0651 8.912 40.4691 9.144 39.7891 9.144C38.9971 9.144 38.3331 8.848 37.7971 8.256C37.3171 7.72 37.0771 7.064 37.0771 6.288C37.0771 5.408 37.3451 4.696 37.8811 4.152C38.3691 3.656 39.0051 3.408 39.7891 3.408ZM39.7891 8.016C40.5651 8.016 40.9531 7.44 40.9531 6.288C40.9531 5.088 40.5651 4.488 39.7891 4.488C39.0131 4.488 38.6251 5.088 38.6251 6.288C38.6251 7.44 39.0131 8.016 39.7891 8.016ZM45.2409 4.08C45.4009 3.896 45.6409 3.74 45.9609 3.612C46.2809 3.476 46.5849 3.408 46.8729 3.408C47.5609 3.408 48.0569 3.596 48.3609 3.972C48.6729 4.348 48.8289 4.956 48.8289 5.796V9H47.3049V5.856C47.3049 5.072 46.9569 4.68 46.2609 4.68C46.0849 4.68 45.8969 4.72 45.6969 4.8C45.4969 4.872 45.3609 4.956 45.2889 5.052V9H43.7769V3.552H45.0609C45.1009 3.76 45.1409 3.936 45.1809 4.08H45.2409ZM55.474 3.552L52.894 5.748C53.854 7.188 54.594 8.272 55.114 9H53.41C52.738 7.848 52.23 6.984 51.886 6.408V9H50.374V2.052L51.886 1.26V4.872C52.278 4.56 52.802 4.12 53.458 3.552H55.474ZM59.7592 4.764H58.1992V7.464C58.1992 7.864 58.3312 8.064 58.5952 8.064C58.8352 8.064 59.1352 7.96 59.4952 7.752L59.9992 8.52C59.4312 8.968 58.8032 9.192 58.1152 9.192C57.1552 9.192 56.6752 8.664 56.6752 7.608V4.764H55.9192V3.552H56.6872V2.58C57.0872 2.364 57.5952 2.096 58.2112 1.776V3.552H59.7592V4.764ZM65.5127 9H64.3007L64.1807 8.484C63.6527 8.924 63.1167 9.144 62.5727 9.144C61.3647 9.144 60.7607 8.556 60.7607 7.38C60.7607 6.796 61.0127 6.34 61.5167 6.012C62.0287 5.676 62.7847 5.508 63.7847 5.508H64.0367V5.484C64.0367 5.14 63.9647 4.904 63.8207 4.776C63.6767 4.648 63.4167 4.584 63.0407 4.584C62.5127 4.584 62.0287 4.752 61.5887 5.088C61.4447 4.824 61.3087 4.564 61.1807 4.308C61.6367 3.956 62.0327 3.72 62.3687 3.6C62.7127 3.472 63.1207 3.408 63.5927 3.408C64.8727 3.408 65.5127 4.208 65.5127 5.808V9ZM63.9887 6.432H63.8087C63.3527 6.432 62.9847 6.512 62.7047 6.672C62.4247 6.832 62.2847 7.044 62.2847 7.308C62.2847 7.804 62.5007 8.052 62.9327 8.052C63.1967 8.052 63.4287 7.976 63.6287 7.824C63.8287 7.672 63.9487 7.48 63.9887 7.248V6.432ZM68.5961 4.08C69.0441 3.632 69.6041 3.408 70.2761 3.408C70.7401 3.408 71.1481 3.508 71.5001 3.708C71.8601 3.9 72.1081 4.16 72.2441 4.488C72.4201 4.168 72.6921 3.908 73.0601 3.708C73.4361 3.508 73.8441 3.408 74.2841 3.408C75.5641 3.408 76.2041 4.184 76.2041 5.736V9H74.6801V6.144C74.6801 5.608 74.6001 5.232 74.4401 5.016C74.2881 4.792 74.0281 4.68 73.6601 4.68C73.1321 4.68 72.7041 4.888 72.3761 5.304V9H70.8641V5.976C70.8641 5.504 70.7801 5.172 70.6121 4.98C70.4441 4.78 70.1561 4.68 69.7481 4.68C69.5081 4.68 69.2801 4.716 69.0641 4.788C68.8561 4.86 68.7201 4.948 68.6561 5.052V9H67.1441V3.552H68.4281L68.5361 4.08H68.5961ZM82.3478 1.404V9H80.7998V1.404H82.3478ZM85.5886 4.08C85.7486 3.896 85.9886 3.74 86.3086 3.612C86.6286 3.476 86.9326 3.408 87.2206 3.408C87.9086 3.408 88.4046 3.596 88.7086 3.972C89.0206 4.348 89.1766 4.956 89.1766 5.796V9H87.6526V5.856C87.6526 5.072 87.3046 4.68 86.6086 4.68C86.4326 4.68 86.2446 4.72 86.0446 4.8C85.8446 4.872 85.7086 4.956 85.6366 5.052V9H84.1246V3.552H85.4086C85.4486 3.76 85.4886 3.936 85.5286 4.08H85.5886ZM93.9257 4.872C93.5337 4.616 93.0857 4.488 92.5817 4.488C92.1977 4.488 92.0057 4.652 92.0057 4.98C92.0057 5.284 92.2657 5.5 92.7857 5.628C93.4337 5.788 93.8737 5.968 94.1057 6.168C94.4417 6.456 94.6097 6.888 94.6097 7.464C94.6097 7.976 94.4257 8.384 94.0577 8.688C93.6977 8.992 93.2097 9.144 92.5937 9.144C91.7217 9.144 90.9857 8.896 90.3857 8.4L90.9377 7.56C91.3537 7.888 91.8537 8.052 92.4377 8.052C92.6697 8.052 92.8577 7.996 93.0017 7.884C93.1457 7.772 93.2177 7.624 93.2177 7.44C93.2177 7.104 92.9337 6.884 92.3657 6.78C91.1497 6.548 90.5417 5.956 90.5417 5.004C90.5417 4.548 90.7257 4.168 91.0937 3.864C91.4697 3.56 91.9377 3.408 92.4977 3.408C93.2577 3.408 93.9177 3.628 94.4777 4.068L93.9257 4.872ZM99.4305 8.376C99.0305 8.888 98.4825 9.144 97.7865 9.144C97.0985 9.144 96.6065 8.968 96.3105 8.616C96.0225 8.256 95.8785 7.656 95.8785 6.816V3.552H97.3665V6.42C97.3665 6.964 97.4385 7.348 97.5825 7.572C97.7265 7.788 97.9745 7.896 98.3265 7.896C98.4785 7.896 98.6505 7.856 98.8425 7.776C99.0345 7.696 99.1505 7.612 99.1905 7.524V3.552H100.703V9H99.5745L99.4425 8.376H99.4305ZM103.62 3.552L103.764 4.032C103.844 3.864 103.996 3.72 104.22 3.6C104.452 3.472 104.688 3.408 104.928 3.408C105.648 3.408 106.184 3.748 106.536 4.428L105.264 5.124C105 4.82 104.72 4.668 104.424 4.668C104.152 4.668 103.952 4.808 103.824 5.088V9H102.336V3.552H103.62ZM111.497 9H110.285L110.165 8.484C109.637 8.924 109.101 9.144 108.557 9.144C107.349 9.144 106.745 8.556 106.745 7.38C106.745 6.796 106.997 6.34 107.501 6.012C108.013 5.676 108.769 5.508 109.769 5.508H110.021V5.484C110.021 5.14 109.949 4.904 109.805 4.776C109.661 4.648 109.401 4.584 109.025 4.584C108.497 4.584 108.013 4.752 107.573 5.088C107.429 4.824 107.293 4.564 107.165 4.308C107.621 3.956 108.017 3.72 108.353 3.6C108.697 3.472 109.105 3.408 109.577 3.408C110.857 3.408 111.497 4.208 111.497 5.808V9ZM109.973 6.432H109.793C109.337 6.432 108.969 6.512 108.689 6.672C108.409 6.832 108.269 7.044 108.269 7.308C108.269 7.804 108.485 8.052 108.917 8.052C109.181 8.052 109.413 7.976 109.613 7.824C109.813 7.672 109.933 7.48 109.973 7.248V6.432ZM114.593 4.08C114.753 3.896 114.993 3.74 115.312 3.612C115.633 3.476 115.937 3.408 116.225 3.408C116.913 3.408 117.409 3.596 117.713 3.972C118.025 4.348 118.181 4.956 118.181 5.796V9H116.657V5.856C116.657 5.072 116.309 4.68 115.613 4.68C115.437 4.68 115.249 4.72 115.049 4.8C114.849 4.872 114.713 4.956 114.641 5.052V9H113.129V3.552H114.413C114.453 3.76 114.493 3.936 114.533 4.08H114.593ZM124.322 8.304C123.754 8.864 123.082 9.144 122.306 9.144C121.378 9.144 120.642 8.848 120.098 8.256C119.626 7.736 119.39 7.084 119.39 6.3C119.39 5.42 119.694 4.7 120.302 4.14C120.83 3.652 121.474 3.408 122.234 3.408C123.074 3.408 123.75 3.672 124.262 4.2L123.806 5.016C123.398 4.656 122.954 4.476 122.474 4.476C122.026 4.476 121.658 4.652 121.37 5.004C121.082 5.348 120.938 5.792 120.938 6.336C120.938 6.84 121.078 7.256 121.358 7.584C121.646 7.904 122.01 8.064 122.45 8.064C122.978 8.064 123.43 7.868 123.806 7.476L124.322 8.304ZM130.508 6.768H126.764C126.796 7.136 126.944 7.444 127.208 7.692C127.48 7.932 127.8 8.052 128.168 8.052C128.688 8.052 129.232 7.892 129.8 7.572L130.184 8.376C129.608 8.888 128.888 9.144 128.024 9.144C127.096 9.144 126.372 8.88 125.852 8.352C125.356 7.856 125.108 7.172 125.108 6.3C125.108 5.444 125.388 4.736 125.948 4.176C126.452 3.664 127.092 3.408 127.868 3.408C128.732 3.408 129.404 3.7 129.884 4.284C130.3 4.78 130.508 5.424 130.508 6.216V6.768ZM126.68 5.652H128.996C128.956 4.868 128.576 4.476 127.856 4.476C127.16 4.476 126.768 4.868 126.68 5.652Z" fill="white"/>
</svg>
