<svg width="16" height="13" viewBox="0 0 16 13" fill="none" xmlns="http://www.w3.org/2000/svg">
<path d="M0.571429 2.56883H15.4286C15.7442 2.56883 16 2.33729 16 2.05163V0.758649C16 0.472996 15.7442 0.241455 15.4286 0.241455H0.571429C0.255821 0.241455 0 0.472996 0 0.758649V2.05163C0 2.33729 0.255821 2.56883 0.571429 2.56883ZM0.571429 7.74077H15.4286C15.7442 7.74077 16 7.50922 16 7.22357V5.93059C16 5.64493 15.7442 5.41339 15.4286 5.41339H0.571429C0.255821 5.41339 0 5.64493 0 5.93059V7.22357C0 7.50922 0.255821 7.74077 0.571429 7.74077ZM0.571429 12.9127H15.4286C15.7442 12.9127 16 12.6812 16 12.3955V11.1025C16 10.8169 15.7442 10.5853 15.4286 10.5853H0.571429C0.255821 10.5853 0 10.8169 0 11.1025V12.3955C0 12.6812 0.255821 12.9127 0.571429 12.9127Z" fill="white"/>
</svg>
