<svg width="26" height="27" viewBox="0 0 26 27" fill="none" xmlns="http://www.w3.org/2000/svg">
<path d="M12.7852 17.25C14.8563 17.25 16.5352 15.5711 16.5352 13.5C16.5352 11.4289 14.8563 9.75 12.7852 9.75C10.7141 9.75 9.03522 11.4289 9.03522 13.5C9.03522 15.5711 10.7141 17.25 12.7852 17.25Z" stroke="#0FA958" stroke-width="1.875"/>
<path d="M2.36148 11.8C2.95273 12.17 3.33273 12.8025 3.33273 13.5C3.33273 14.1975 2.95273 14.83 2.36148 15.2C1.96023 15.4537 1.70023 15.655 1.51648 15.895C1.31659 16.1555 1.17 16.4529 1.08506 16.7701C1.00013 17.0873 0.978525 17.4182 1.02148 17.7438C1.08648 18.2363 1.37773 18.7413 1.95898 19.75C2.54273 20.7587 2.83398 21.2625 3.22773 21.5662C3.48828 21.7661 3.78565 21.9127 4.10286 21.9977C4.42008 22.0826 4.75092 22.1042 5.07648 22.0613C5.37648 22.0213 5.68023 21.8988 6.10023 21.6763C6.40081 21.5118 6.73826 21.4264 7.0809 21.4281C7.42353 21.4299 7.7601 21.5187 8.05898 21.6862C8.66273 22.0362 9.02148 22.68 9.04648 23.3775C9.06398 23.8525 9.10898 24.1775 9.22523 24.4562C9.35087 24.7598 9.5351 25.0356 9.76739 25.2678C9.99967 25.5001 10.2755 25.6844 10.579 25.81C11.0377 26 11.6202 26 12.7852 26C13.9502 26 14.5327 26 14.9915 25.81C15.295 25.6844 15.5708 25.5001 15.8031 25.2678C16.0354 25.0356 16.2196 24.7598 16.3452 24.4562C16.4602 24.1775 16.5065 23.8525 16.524 23.3775C16.549 22.68 16.9077 22.035 17.5115 21.6862C17.8104 21.5187 18.1469 21.4299 18.4896 21.4281C18.8322 21.4264 19.1697 21.5118 19.4702 21.6763C19.8902 21.8988 20.1952 22.0213 20.4952 22.0613C21.1523 22.1477 21.8169 21.9696 22.3427 21.5662C22.7365 21.2637 23.0277 20.7587 23.6102 19.75C23.8702 19.3 24.0715 18.9513 24.2215 18.6588M23.209 15.2013C22.9163 15.0234 22.6737 14.7741 22.5038 14.4767C22.3339 14.1793 22.2423 13.8437 22.2377 13.5013C22.2377 12.8025 22.6177 12.17 23.209 11.7987C23.6102 11.5462 23.869 11.345 24.054 11.105C24.2539 10.8445 24.4005 10.5471 24.4854 10.2299C24.5703 9.91265 24.5919 9.58182 24.549 9.25625C24.484 8.76375 24.1927 8.25875 23.6115 7.25C23.0277 6.24125 22.7365 5.7375 22.3427 5.43375C22.0822 5.23386 21.7848 5.08727 21.4676 5.00233C21.1504 4.9174 20.8195 4.89579 20.494 4.93875C20.194 4.97875 19.8902 5.10125 19.469 5.32375C19.1686 5.48802 18.8313 5.57328 18.4889 5.57153C18.1465 5.56978 17.8102 5.48108 17.5115 5.31375C17.217 5.13863 16.972 4.89155 16.7992 4.59571C16.6265 4.29987 16.5318 3.96499 16.524 3.6225C16.5065 3.1475 16.4615 2.8225 16.3452 2.54375C16.2196 2.24023 16.0354 1.96444 15.8031 1.73215C15.5708 1.49987 15.295 1.31564 14.9915 1.19C14.5327 1 13.9502 1 12.7852 1C11.6202 1 11.0377 1 10.579 1.19C10.2755 1.31564 9.99967 1.49987 9.76739 1.73215C9.5351 1.96444 9.35087 2.24023 9.22523 2.54375C9.11023 2.8225 9.06398 3.1475 9.04648 3.6225C9.03869 3.96499 8.94398 4.29987 8.77125 4.59571C8.59851 4.89155 8.35342 5.13863 8.05898 5.31375C7.7601 5.4813 7.42353 5.57013 7.0809 5.57188C6.73826 5.57363 6.40081 5.48824 6.10023 5.32375C5.68023 5.10125 5.37523 4.97875 5.07523 4.93875C4.41813 4.85234 3.75361 5.03038 3.22773 5.43375C2.83523 5.7375 2.54273 6.24125 1.96023 7.25C1.70023 7.7 1.49898 8.04875 1.34898 8.34125" stroke="#0FA958" stroke-width="1.875" stroke-linecap="round"/>
</svg>
